<?xml version="1.0" encoding="UTF-8"?>
<svg version="1.1" xmlns="http://www.w3.org/2000/svg" width="32" height="32">
<path d="M0 0 C10.56 0 21.12 0 32 0 C32 10.56 32 21.12 32 32 C21.44 32 10.88 32 0 32 C0 21.44 0 10.88 0 0 Z " fill="#F3F3F3" transform="translate(0,0)"/>
<path d="M0 0 C2 0 2 0 3.5 1.4375 C3.995 1.953125 4.49 2.46875 5 3 C5.66 3.33 6.32 3.66 7 4 C7.31563182 9.26053037 6.66590937 12.44573816 4 17 C4.66 17 5.32 17 6 17 C6 18.32 6 19.64 6 21 C6.66 21 7.32 21 8 21 C8.66 19.68 9.32 18.36 10 17 C10.33 18.65 10.66 20.3 11 22 C11.66 22 12.32 22 13 22 C13.10662326 16.88208358 12.71167986 12.07071901 12 7 C12.66 7.33 13.32 7.66 14 8 C14 9.32 14 10.64 14 12 C14.66 12 15.32 12 16 12 C16 10.35 16 8.7 16 7 C16.33 7 16.66 7 17 7 C17 12.28 17 17.56 17 23 C6.44 23 -4.12 23 -15 23 C-15 19.04 -15 15.08 -15 11 C-14.01 11 -13.02 11 -12 11 C-11.67 9.35 -11.34 7.7 -11 6 C-10.67 6 -10.34 6 -10 6 C-10.33 11.28 -10.66 16.56 -11 22 C-10.34 22 -9.68 22 -9 22 C-8.67 19.36 -8.34 16.72 -8 14 C-7.34 14.33 -6.68 14.66 -6 15 C-6 16.98 -6 18.96 -6 21 C-5.34 21 -4.68 21 -4 21 C-4.33 15.39 -4.66 9.78 -5 4 C-3.68 3.67 -2.36 3.34 -1 3 C-0.67 2.01 -0.34 1.02 0 0 Z " fill="#F5F5F5" transform="translate(15,9)"/>
<path d="M0 0 C3.50989295 0.64998018 5.97242212 2.15391593 9 4 C9.86625 4.33 10.7325 4.66 11.625 5 C14.13408981 6.05645887 15.43505744 6.77613426 17 9 C17.1875 11.6875 17.1875 11.6875 17 14 C16.34 14 15.68 14 15 14 C14.67 12.68 14.34 11.36 14 10 C14.12568359 11.01320313 14.12568359 11.01320313 14.25390625 12.046875 C14.35574219 12.93890625 14.45757813 13.8309375 14.5625 14.75 C14.66691406 15.63171875 14.77132813 16.5134375 14.87890625 17.421875 C14.99456676 19.88432451 14.73638695 21.66538064 14 24 C13.34 24 12.68 24 12 24 C11.34 23.01 10.68 22.02 10 21 C9.67 21.66 9.34 22.32 9 23 C8.34 23 7.68 23 7 23 C7 21.68 7 20.36 7 19 C6.34 19 5.68 19 5 19 C5.4640625 17.7315625 5.4640625 17.7315625 5.9375 16.4375 C7.01538821 12.9502146 7.56581304 9.61822465 8 6 C6.35 5.34 4.7 4.68 3 4 C3 3.34 3 2.68 3 2 C2.3503125 2.7115625 2.3503125 2.7115625 1.6875 3.4375 C0 5 0 5 -3 6 C-3 11.61 -3 17.22 -3 23 C-3.66 23 -4.32 23 -5 23 C-5.33 21.02 -5.66 19.04 -6 17 C-6.66 19.31 -7.32 21.62 -8 24 C-8.66 24 -9.32 24 -10 24 C-10 19.05 -10 14.1 -10 9 C-10.33 10.32 -10.66 11.64 -11 13 C-11.66 13 -12.32 13 -13 13 C-13 11.02 -13 9.04 -13 7 C-11.3767313 6.3291288 -9.75132422 5.66342971 -8.125 5 C-7.22007812 4.62875 -6.31515625 4.2575 -5.3828125 3.875 C-3 3 -3 3 -1 3 C-0.67 2.01 -0.34 1.02 0 0 Z " fill="#181818" transform="translate(14,7)"/>
<path d="M0 0 C-0.99 0.495 -0.99 0.495 -2 1 C-2 6.61 -2 12.22 -2 18 C-2.66 18 -3.32 18 -4 18 C-4.33 16.02 -4.66 14.04 -5 12 C-5.66 14.31 -6.32 16.62 -7 19 C-7.66 19 -8.32 19 -9 19 C-9 14.05 -9 9.1 -9 4 C-9.33 5.32 -9.66 6.64 -10 8 C-10.66 8 -11.32 8 -12 8 C-12 6.02 -12 4.04 -12 2 C-10.75579353 1.4654744 -9.50429064 0.94791389 -8.25 0.4375 C-7.55390625 0.14746094 -6.8578125 -0.14257812 -6.140625 -0.44140625 C-3.69987216 -1.07831803 -2.3596345 -0.80248831 0 0 Z " fill="#131313" transform="translate(13,12)"/>
<path d="M0 0 C3.87132028 0.57352893 6.08172796 2.48704352 9 5 C8.01 5.33 7.02 5.66 6 6 C5.01 5.34 4.02 4.68 3 4 C3 3.34 3 2.68 3 2 C1.68 2.99 0.36 3.98 -1 5 C-1.66 4.34 -2.32 3.68 -3 3 C-2.34 3 -1.68 3 -1 3 C-0.67 2.01 -0.34 1.02 0 0 Z " fill="#252525" transform="translate(14,7)"/>
<path d="M0 0 C1.32 0 2.64 0 4 0 C4 1.32 4 2.64 4 4 C2.35 3.67 0.7 3.34 -1 3 C-0.67 2.01 -0.34 1.02 0 0 Z " fill="#141414" transform="translate(23,7)"/>
<path d="M0 0 C1.32 0 2.64 0 4 0 C3.67 1.32 3.34 2.64 3 4 C1.68 3.67 0.36 3.34 -1 3 C-0.67 2.01 -0.34 1.02 0 0 Z " fill="#0D0D0D" transform="translate(5,7)"/>
</svg>
